<svg width="252" height="54" xmlns="http://www.w3.org/2000/svg" xmlns:xlink="http://www.w3.org/1999/xlink" overflow="hidden"><defs><clipPath id="clip0"><rect x="522" y="344" width="252" height="54"/></clipPath></defs><g clip-path="url(#clip0)" transform="translate(-522 -344)"><path d="M532.407 346.021 537.202 346.021 546.627 385.021 540.426 385.021 534.805 356.723 529.211 385.021 523.01 385.021ZM529.211 372.227 540.619 372.227 540.619 377.725 529.211 377.725ZM550.236 357.179 556.299 357.179 556.299 385.021 550.236 385.021ZM561.976 365.521C561.976 364.377 561.737 363.514 561.259 362.933 560.781 362.352 560.065 362.061 559.109 362.061 558.172 362.061 557.47 362.356 557.001 362.946 556.533 363.536 556.299 364.421 556.299 365.602L555.72 361.954C556.326 360.219 557.185 358.909 558.297 358.024 559.408 357.139 560.671 356.697 562.086 356.697 563.978 356.697 565.438 357.327 566.467 358.587 567.496 359.848 568.01 361.641 568.01 363.965L568.01 385.021 561.976 385.021Z" fill="#FED136" fill-rule="evenodd"/><path d="M532.198 345.021 536.886 345.021 546.101 385.021 540.039 385.021 534.542 355.998 529.073 385.021 523.01 385.021ZM529.073 371.899 540.227 371.899 540.227 377.539 529.073 377.539ZM549.631 356.466 555.559 356.466 555.559 385.021 549.631 385.021ZM561.109 365.022C561.109 363.848 560.875 362.963 560.408 362.367 559.941 361.771 559.241 361.473 558.307 361.473 557.391 361.473 556.704 361.775 556.246 362.381 555.788 362.986 555.559 363.894 555.559 365.104L554.993 361.363C555.585 359.584 556.425 358.24 557.512 357.332 558.599 356.424 559.834 355.971 561.217 355.971 563.067 355.971 564.495 356.617 565.501 357.91 566.507 359.203 567.01 361.042 567.01 363.426L567.01 385.021 561.109 385.021Z" fill="#FED136" fill-rule="evenodd"/><path d="M593.381 386.045C591.417 386.045 589.736 385.649 588.336 384.858 586.936 384.067 585.868 382.925 585.132 381.433 584.396 379.94 584.028 378.142 584.028 376.039L584.028 356.027C584.028 353.924 584.396 352.121 585.132 350.62 585.868 349.118 586.936 347.977 588.336 347.195 589.736 346.413 591.417 346.021 593.381 346.021 595.362 346.021 597.053 346.413 598.453 347.195 599.853 347.977 600.921 349.118 601.657 350.62 602.393 352.121 602.761 353.924 602.761 356.027L602.761 358.454 596.708 358.454 596.708 356.027C596.708 355.164 596.58 354.422 596.326 353.802 596.071 353.182 595.694 352.71 595.194 352.386 594.694 352.063 594.09 351.901 593.381 351.901 592.69 351.901 592.099 352.063 591.608 352.386 591.117 352.71 590.74 353.182 590.477 353.802 590.213 354.422 590.081 355.164 590.081 356.027L590.081 376.039C590.081 376.902 590.213 377.639 590.477 378.25 590.74 378.862 591.117 379.329 591.608 379.653 592.099 379.976 592.69 380.138 593.381 380.138 594.09 380.138 594.694 379.976 595.194 379.653 595.694 379.329 596.071 378.862 596.326 378.25 596.58 377.639 596.708 376.893 596.708 376.012L596.708 373.612 602.761 373.612 602.761 376.012C602.761 378.115 602.393 379.918 601.657 381.419 600.921 382.921 599.853 384.067 598.453 384.858 597.053 385.649 595.362 386.045 593.381 386.045ZM607.722 346.426 613.694 346.426 613.694 385.64 607.722 385.64ZM619.338 366.114C619.338 364.945 619.102 364.069 618.63 363.484 618.157 362.9 617.448 362.608 616.503 362.608 615.557 362.608 614.853 362.905 614.389 363.498 613.926 364.091 613.694 364.972 613.694 366.141L613.176 362.446C613.757 360.72 614.598 359.407 615.698 358.508 616.798 357.609 618.048 357.16 619.448 357.16 621.32 357.16 622.765 357.789 623.783 359.048 624.801 360.306 625.31 362.113 625.31 364.469L625.31 385.64 619.338 385.64ZM642.427 365.359C642.427 364.424 642.172 363.7 641.663 363.188 641.154 362.675 640.445 362.419 639.536 362.419 638.736 362.419 638.114 362.675 637.668 363.188 637.223 363.7 637 364.424 637 365.359L631.246 365.359C631.246 362.752 631.978 360.733 633.441 359.304 634.905 357.875 636.973 357.16 639.645 357.16 641.427 357.16 642.954 357.479 644.227 358.117 645.499 358.756 646.472 359.691 647.144 360.922 647.817 362.154 648.153 363.633 648.153 365.359L648.153 385.64 642.427 385.64ZM637.409 386.045C635.191 386.045 633.514 385.375 632.378 384.035 631.242 382.696 630.674 380.723 630.674 378.115 630.674 375.041 631.437 372.721 632.964 371.157 634.491 369.593 636.746 368.811 639.727 368.811L642.59 368.811 642.972 373.746 639.918 373.746C638.736 373.746 637.845 374.115 637.246 374.852 636.646 375.589 636.345 376.677 636.345 378.115 636.345 379.068 636.568 379.783 637.014 380.26 637.459 380.736 638.127 380.974 639.018 380.974 640.127 380.974 640.972 380.669 641.554 380.057 642.136 379.446 642.427 378.538 642.427 377.333L642.945 379.815C642.927 381.163 642.704 382.305 642.277 383.24 641.85 384.175 641.227 384.876 640.409 385.343 639.591 385.811 638.591 386.045 637.409 386.045ZM653.896 357.645 659.895 357.645 659.895 385.64 653.896 385.64ZM665.513 366.033C665.513 364.882 665.276 364.015 664.804 363.43 664.331 362.846 663.622 362.554 662.677 362.554 661.75 362.554 661.054 362.851 660.591 363.444 660.127 364.037 659.895 364.927 659.895 366.114L659.323 362.446C659.922 360.702 660.773 359.385 661.872 358.495 662.972 357.605 664.222 357.16 665.622 357.16 667.494 357.16 668.939 357.794 669.958 359.061 670.975 360.329 671.485 362.131 671.485 364.469L671.485 385.64 665.513 385.64ZM685.247 397.021C682.575 397.021 680.502 396.32 679.029 394.918 677.557 393.515 676.821 391.546 676.821 389.011L676.821 388.013 682.765 387.986 682.765 388.984C682.765 389.829 683.002 390.486 683.474 390.953 683.947 391.421 684.602 391.654 685.438 391.654 686.274 391.654 686.919 391.425 687.374 390.967 687.828 390.508 688.056 389.865 688.056 389.038L688.056 357.645 694.028 357.645 694.028 389.038C694.028 390.728 693.682 392.167 692.991 393.353 692.3 394.54 691.3 395.448 689.992 396.077 688.683 396.707 687.101 397.021 685.247 397.021ZM682.602 386.099C681.347 386.099 680.279 385.788 679.397 385.168 678.516 384.548 677.843 383.64 677.38 382.444 676.916 381.248 676.684 379.806 676.684 378.115L676.684 365.278C676.684 363.57 676.916 362.109 677.38 360.895 677.843 359.682 678.516 358.756 679.397 358.117 680.279 357.479 681.347 357.16 682.602 357.16 683.856 357.16 685.011 357.6 686.065 358.481 687.119 359.362 687.974 360.594 688.628 362.176L688.056 365.844C688.056 365.143 687.951 364.541 687.742 364.037 687.533 363.534 687.224 363.152 686.815 362.891 686.406 362.63 685.91 362.5 685.329 362.5 684.456 362.5 683.774 362.797 683.283 363.39 682.792 363.983 682.547 364.81 682.547 365.871L682.547 377.603C682.547 378.61 682.792 379.388 683.283 379.936 683.774 380.484 684.456 380.759 685.329 380.759 685.91 380.759 686.406 380.633 686.815 380.381 687.224 380.129 687.533 379.756 687.742 379.262 687.951 378.767 688.056 378.178 688.056 377.495L688.437 381.244C687.946 382.772 687.192 383.963 686.174 384.818 685.156 385.672 683.965 386.099 682.602 386.099Z" fill="#FED136" fill-rule="evenodd"/><path d="M593.295 385.044C591.35 385.044 589.683 384.649 588.296 383.858 586.909 383.067 585.851 381.925 585.121 380.433 584.392 378.94 584.027 377.142 584.027 375.039L584.027 355.027C584.027 352.923 584.392 351.121 585.121 349.62 585.851 348.118 586.909 346.977 588.296 346.194 589.683 345.412 591.35 345.021 593.295 345.021 595.259 345.021 596.934 345.412 598.321 346.194 599.708 346.977 600.767 348.118 601.496 349.62 602.226 351.121 602.591 352.923 602.591 355.027L602.591 357.454 596.592 357.454 596.592 355.027C596.592 354.164 596.466 353.422 596.214 352.802 595.961 352.182 595.588 351.71 595.092 351.386 594.597 351.062 593.998 350.901 593.295 350.901 592.611 350.901 592.025 351.062 591.539 351.386 591.052 351.71 590.679 352.182 590.418 352.802 590.156 353.422 590.026 354.164 590.026 355.027L590.026 375.039C590.026 375.902 590.156 376.639 590.418 377.25 590.679 377.861 591.052 378.329 591.539 378.653 592.025 378.976 592.611 379.138 593.295 379.138 593.998 379.138 594.597 378.976 595.092 378.653 595.588 378.329 595.961 377.861 596.214 377.25 596.466 376.639 596.592 375.893 596.592 375.012L596.592 372.611 602.591 372.611 602.591 375.012C602.591 377.115 602.226 378.918 601.496 380.419 600.767 381.92 599.708 383.067 598.321 383.858 596.934 384.649 595.259 385.044 593.295 385.044ZM607.506 345.426 613.424 345.426 613.424 384.64 607.506 384.64ZM619.017 365.114C619.017 363.945 618.783 363.068 618.315 362.484 617.846 361.9 617.144 361.608 616.207 361.608 615.27 361.608 614.572 361.904 614.113 362.498 613.653 363.091 613.424 363.972 613.424 365.141L612.91 361.446C613.487 359.72 614.32 358.407 615.41 357.508 616.5 356.609 617.738 356.16 619.125 356.16 620.981 356.16 622.413 356.789 623.421 358.048 624.43 359.306 624.935 361.113 624.935 363.469L624.935 384.64 619.017 384.64ZM641.895 364.359C641.895 363.424 641.643 362.7 641.139 362.187 640.634 361.675 639.932 361.419 639.031 361.419 638.239 361.419 637.622 361.675 637.18 362.187 636.739 362.7 636.518 363.424 636.518 364.359L630.817 364.359C630.817 361.751 631.542 359.733 632.992 358.304 634.442 356.874 636.491 356.16 639.139 356.16 640.905 356.16 642.418 356.479 643.679 357.117 644.94 357.755 645.904 358.69 646.57 359.922 647.236 361.154 647.57 362.632 647.57 364.359L647.57 384.64 641.895 384.64ZM636.923 385.044C634.726 385.044 633.064 384.375 631.938 383.035 630.812 381.696 630.249 379.722 630.249 377.115 630.249 374.041 631.006 371.721 632.519 370.157 634.032 368.593 636.266 367.811 639.22 367.811L642.057 367.811 642.436 372.746 639.409 372.746C638.239 372.746 637.356 373.115 636.761 373.852 636.167 374.589 635.87 375.677 635.87 377.115 635.87 378.068 636.09 378.783 636.532 379.259 636.973 379.736 637.635 379.974 638.518 379.974 639.617 379.974 640.454 379.668 641.03 379.057 641.607 378.446 641.895 377.538 641.895 376.333L642.409 378.814C642.391 380.163 642.17 381.305 641.747 382.24 641.323 383.174 640.706 383.876 639.896 384.343 639.085 384.811 638.094 385.044 636.923 385.044ZM653.26 356.645 659.205 356.645 659.205 384.64 653.26 384.64ZM664.771 365.033C664.771 363.882 664.537 363.015 664.069 362.43 663.601 361.846 662.898 361.554 661.961 361.554 661.043 361.554 660.353 361.85 659.894 362.444 659.435 363.037 659.205 363.927 659.205 365.114L658.638 361.446C659.232 359.702 660.075 358.385 661.164 357.495 662.254 356.605 663.492 356.16 664.88 356.16 666.735 356.16 668.167 356.793 669.176 358.061 670.185 359.329 670.689 361.131 670.689 363.469L670.689 384.64 664.771 384.64ZM684.326 396.021C681.678 396.021 679.625 395.32 678.165 393.917 676.706 392.515 675.977 390.546 675.977 388.011L675.977 387.013 681.867 386.986 681.867 387.984C681.867 388.829 682.101 389.485 682.57 389.953 683.038 390.42 683.687 390.654 684.515 390.654 685.344 390.654 685.983 390.425 686.434 389.966 686.884 389.508 687.109 388.865 687.109 388.038L687.109 356.645 693.027 356.645 693.027 388.038C693.027 389.728 692.685 391.167 692 392.353 691.316 393.54 690.325 394.448 689.028 395.077 687.731 395.706 686.164 396.021 684.326 396.021ZM681.705 385.098C680.462 385.098 679.404 384.788 678.53 384.168 677.657 383.548 676.99 382.64 676.531 381.444 676.071 380.248 675.842 378.805 675.842 377.115L675.842 364.278C675.842 362.57 676.071 361.109 676.531 359.895 676.99 358.681 677.657 357.755 678.53 357.117 679.404 356.479 680.462 356.16 681.705 356.16 682.948 356.16 684.092 356.6 685.137 357.481 686.182 358.362 687.028 359.594 687.677 361.176L687.109 364.844C687.109 364.143 687.006 363.54 686.799 363.037 686.591 362.534 686.285 362.151 685.88 361.891 685.475 361.63 684.984 361.5 684.407 361.5 683.543 361.5 682.867 361.796 682.381 362.39 681.894 362.983 681.651 363.81 681.651 364.871L681.651 376.603C681.651 377.61 681.894 378.387 682.381 378.936 682.867 379.484 683.543 379.758 684.407 379.758 684.984 379.758 685.475 379.632 685.88 379.381 686.285 379.129 686.591 378.756 686.799 378.261 687.006 377.767 687.109 377.178 687.109 376.495L687.488 380.244C687.001 381.772 686.254 382.963 685.245 383.817 684.236 384.671 683.056 385.098 681.705 385.098Z" fill="#FED136" fill-rule="evenodd"/><path d="M711.064 346.021 717.036 346.021 717.036 385.613 711.064 385.613ZM722.68 365.899C722.68 364.719 722.443 363.834 721.971 363.244 721.498 362.654 720.789 362.359 719.844 362.359 718.899 362.359 718.194 362.659 717.731 363.258 717.267 363.857 717.036 364.746 717.036 365.926L716.517 362.196C717.099 360.453 717.94 359.128 719.04 358.22 720.139 357.313 721.389 356.859 722.789 356.859 724.661 356.859 726.106 357.494 727.124 358.765 728.142 360.036 728.651 361.86 728.651 364.238L728.651 385.613 722.68 385.613ZM742.63 386.021C740.776 386.021 739.195 385.668 737.886 384.96 736.577 384.252 735.577 383.221 734.887 381.869 734.196 380.517 733.851 378.887 733.851 376.981L733.851 366.416C733.851 364.401 734.187 362.677 734.859 361.243 735.532 359.809 736.509 358.719 737.791 357.975 739.072 357.231 740.613 356.859 742.412 356.859 744.23 356.859 745.789 357.213 747.089 357.921 748.388 358.629 749.379 359.659 750.061 361.011 750.742 362.364 751.083 364.002 751.083 365.926L751.083 373.659 738.377 373.659 738.377 369.058 745.33 369.058 745.33 365.844C745.33 364.683 745.076 363.784 744.566 363.149 744.057 362.513 743.339 362.196 742.412 362.196 741.522 362.196 740.831 362.536 740.34 363.217 739.849 363.898 739.604 364.855 739.604 366.09L739.604 377.172C739.604 378.243 739.867 379.078 740.395 379.677 740.922 380.276 741.667 380.576 742.63 380.576 743.521 380.576 744.207 380.344 744.689 379.881 745.171 379.418 745.412 378.769 745.412 377.934L745.412 377.335 751.165 377.363 751.165 377.853C751.165 380.449 750.42 382.459 748.929 383.884 747.438 385.309 745.339 386.021 742.63 386.021ZM764.53 386.021C762.675 386.021 761.094 385.668 759.785 384.96 758.476 384.252 757.477 383.221 756.786 381.869 756.095 380.517 755.75 378.887 755.75 376.981L755.75 366.416C755.75 364.401 756.086 362.677 756.759 361.243 757.431 359.809 758.408 358.719 759.69 357.975 760.971 357.231 762.512 356.859 764.311 356.859 766.129 356.859 767.688 357.213 768.988 357.921 770.288 358.629 771.278 359.659 771.96 361.011 772.641 362.364 772.982 364.002 772.982 365.926L772.982 373.659 760.276 373.659 760.276 369.058 767.229 369.058 767.229 365.844C767.229 364.683 766.975 363.784 766.466 363.149 765.957 362.513 765.238 362.196 764.311 362.196 763.421 362.196 762.73 362.536 762.239 363.217 761.748 363.898 761.503 364.855 761.503 366.09L761.503 377.172C761.503 378.243 761.767 379.078 762.294 379.677 762.821 380.276 763.566 380.576 764.53 380.576 765.42 380.576 766.107 380.344 766.588 379.881 767.07 379.418 767.311 378.769 767.311 377.934L767.311 377.335 773.064 377.363 773.064 377.853C773.064 380.449 772.319 382.459 770.828 383.884 769.338 385.309 767.238 386.021 764.53 386.021Z" fill="#FED136" fill-rule="evenodd"/><path d="M710.064 345.021 716.035 345.021 716.035 384.613 710.064 384.613ZM721.68 364.899C721.68 363.719 721.443 362.834 720.971 362.244 720.498 361.654 719.789 361.359 718.844 361.359 717.899 361.359 717.194 361.658 716.731 362.257 716.267 362.857 716.035 363.746 716.035 364.926L715.517 361.196C716.099 359.453 716.94 358.128 718.039 357.22 719.139 356.312 720.389 355.859 721.789 355.859 723.661 355.859 725.106 356.494 726.124 357.765 727.142 359.035 727.651 360.86 727.651 363.238L727.651 384.613 721.68 384.613ZM741.63 385.021C739.776 385.021 738.195 384.667 736.886 383.959 735.577 383.251 734.577 382.221 733.887 380.869 733.196 379.516 732.85 377.887 732.85 375.981L732.85 365.416C732.85 363.401 733.187 361.677 733.859 360.242 734.532 358.808 735.509 357.719 736.79 356.975 738.072 356.231 739.613 355.859 741.412 355.859 743.23 355.859 744.789 356.213 746.089 356.921 747.388 357.628 748.379 358.659 749.061 360.011 749.742 361.363 750.083 363.002 750.083 364.926L750.083 372.659 737.377 372.659 737.377 368.057 744.33 368.057 744.33 364.844C744.33 363.682 744.075 362.784 743.566 362.149 743.057 361.513 742.339 361.196 741.412 361.196 740.521 361.196 739.831 361.536 739.34 362.217 738.849 362.897 738.604 363.855 738.604 365.089L738.604 376.172C738.604 377.243 738.867 378.078 739.394 378.677 739.922 379.276 740.667 379.575 741.63 379.575 742.521 379.575 743.207 379.344 743.689 378.881 744.171 378.418 744.411 377.769 744.411 376.934L744.411 376.335 750.165 376.362 750.165 376.852C750.165 379.448 749.419 381.459 747.929 382.884 746.438 384.309 744.339 385.021 741.63 385.021ZM763.529 385.021C761.675 385.021 760.094 384.667 758.785 383.959 757.476 383.251 756.476 382.221 755.786 380.869 755.095 379.516 754.749 377.887 754.749 375.981L754.749 365.416C754.749 363.401 755.086 361.677 755.759 360.242 756.431 358.808 757.408 357.719 758.69 356.975 759.971 356.231 761.512 355.859 763.311 355.859 765.129 355.859 766.688 356.213 767.988 356.921 769.287 357.628 770.278 358.659 770.96 360.011 771.641 361.363 771.982 363.002 771.982 364.926L771.982 372.659 759.276 372.659 759.276 368.057 766.229 368.057 766.229 364.844C766.229 363.682 765.974 362.784 765.465 362.149 764.956 361.513 764.238 361.196 763.311 361.196 762.421 361.196 761.73 361.536 761.239 362.217 760.748 362.897 760.503 363.855 760.503 365.089L760.503 376.172C760.503 377.243 760.766 378.078 761.294 378.677 761.82 379.276 762.566 379.575 763.529 379.575 764.42 379.575 765.107 379.344 765.588 378.881 766.07 378.418 766.311 377.769 766.311 376.934L766.311 376.335 772.064 376.362 772.064 376.852C772.064 379.448 771.319 381.459 769.828 382.884 768.337 384.309 766.238 385.021 763.529 385.021Z" fill="#FED136" fill-rule="evenodd"/></g></svg>